# xmcd
#
# Track frame offsets: 
#        150
#        11550
#        25012
#        36450
#        46947
#        57915
#        69920
#        81467
#        96455
#        107590
#        119910
#        135570
#        146125
#        162730
#        173232
#        185267
#
# Disc length: 2608 seconds
#
# Revision: 3
# Processed by: cddbd v1.5.2PL0 Copyright (c) Steve Scherf et al.
# Submitted via: ExactAudioCopy v1.3
#
DISCID=e80a2e10
DTITLE=Yardbirds - Heart Full Of Soul (Complilation)
DYEAR=1993
DGENRE=Rock
TTITLE0=Heart Full Of Soul
TTITLE1=Still I'm Sad
TTITLE2=For Your Love
TTITLE3=Putty
TTITLE4=Evil Hearted You
TTITLE5=I'm A Man
TTITLE6=I'm Not Talking
TTITLE7=You're A Better Man Than I
TTITLE8=Shapes Of Things
TTITLE9=Goodnight Sweet Josephine
TTITLE10=The Train Kept A-Rollin'
TTITLE11=I Wish You Would
TTITLE12=I Ain't Done Wrong
TTITLE13=A Certain Girl
TTITLE14=Got To Hurry
TTITLE15=Honey In Your Hips
EXTD=
EXTT0=
EXTT1=
EXTT2=
EXTT3=
EXTT4=
EXTT5=
EXTT6=
EXTT7=
EXTT8=
EXTT9=
EXTT10=
EXTT11=
EXTT12=
EXTT13=
EXTT14=
EXTT15=
PLAYORDER=
